<svg version="1.1" id="Layer_1" xmlns="http://www.w3.org/2000/svg" x="0" y="0" viewBox="0 0 1200 157" xml:space="preserve"><style>.st0{fill:#009ade}</style><g id="Group_2_1_" transform="translate(186.106)"><path id="Path_2429_1_" class="st0" d="M600.64 137.53l-78.59-61.84-4.72 26.84-12.67-10.95-4.3 6c-.83.92-1.99 1.46-3.22 1.5-.6-.02-1.18-.16-1.72-.43l-28.13-16.96 7.31 14.17 54.76 38.87 5.36-30.48 65.51 34.57h.21c.31.05.6-.17.64-.48a.43.43 0 000-.16c-.23-.22-.23-.43-.44-.65zM441.52 48.21c.39-.63 1.01-1.09 1.72-1.29.77-.26 1.6-.26 2.36 0l-41.01-30.71.64 28.77-80.52-35.64h-.21a.68.68 0 00-.64.64c0 .21.21.43.43.64l92.98 62.49 4.94-17.18 10.52 7.94 8.79-15.66z"/></g><path id="Path_2430_1_" class="st0" d="M476.24 42.41c-8.06 0-14.6 6.54-14.6 14.6s6.54 14.6 14.6 14.6c8.06 0 14.6-6.54 14.6-14.6 0-8.06-6.54-14.59-14.6-14.6z"/><path id="Path_2431_1_" d="M80.5 90.29c3.65-3.43 11.17-9.23 11.17-19.76 0-18.9-17.39-27.27-31.99-27.27H8.99a2.84 2.84 0 00-2.79 2.8v93.84a2.844 2.844 0 002.79 2.79h50.68c8.67.28 17.19-2.29 24.26-7.31a27.133 27.133 0 009.88-21.69c.21-9.65-4.91-18.64-13.31-23.4zm-59.05-29.2a2.833 2.833 0 012.79-2.8h35.64c9.88 0 16.97 4.74 16.97 12.25 0 8.59-7.52 13.96-16.96 13.96H24.24a2.844 2.844 0 01-2.79-2.79V61.09zm38.43 66.57H24.24a2.835 2.835 0 01-2.79-2.78v-22.55a2.844 2.844 0 012.79-2.79h35.65c14.82 0 18.9 5.37 18.9 13.96-.01 9.21-5.81 14.16-18.91 14.16zm140.01-84.39h-9.45a2.844 2.844 0 00-2.79 2.79v59.05c0 14.39-5.8 24.48-28.56 24.69-22.76 0-28.56-10.31-28.56-24.69V46.06a2.844 2.844 0 00-2.79-2.79h-9.45a2.844 2.844 0 00-2.79 2.79v59.05c0 9.45 1.72 19.33 8.16 26.84s17.39 12.88 35.43 12.88 28.99-5.14 35.43-12.88c6.44-7.52 8.16-17.59 8.16-26.84V46.06a2.837 2.837 0 00-2.79-2.79zm118.1 0h-9.44a2.844 2.844 0 00-2.79 2.79v68.93c0 1.5-.86 1.72-1.72.64l-54.77-70a6.082 6.082 0 00-4.51-2.15h-9.23a2.844 2.844 0 00-2.79 2.79v93.83a2.844 2.844 0 002.79 2.79h9.45a2.844 2.844 0 002.79-2.79V70.97c0-1.5.86-1.72 1.72-.64l54.76 70a6.082 6.082 0 004.51 2.15h9.23a2.844 2.844 0 002.79-2.79V46.06a2.844 2.844 0 00-2.79-2.79zm162.76 36.72h-9.45a2.844 2.844 0 00-2.79 2.79v57.11a2.844 2.844 0 002.79 2.79h9.45a2.844 2.844 0 002.79-2.79V82.78a2.83 2.83 0 00-2.79-2.79zm106.08 47.67h-59.91a2.844 2.844 0 01-2.79-2.79v-23.62a2.844 2.844 0 012.79-2.79h37.79a2.844 2.844 0 002.79-2.79V86a2.844 2.844 0 00-2.79-2.79h-37.79a2.844 2.844 0 01-2.79-2.79V60.88a2.844 2.844 0 012.79-2.79h57.33a2.844 2.844 0 002.79-2.79v-9.66a2.844 2.844 0 00-2.79-2.79h-72.36a2.844 2.844 0 00-2.79 2.79v93.83a2.844 2.844 0 002.79 2.79h74.94a2.844 2.844 0 002.79-2.79v-9.45a2.8 2.8 0 00-2.79-2.36zm-146.87-37.8h-35a2.844 2.844 0 00-2.79 2.79v9.02a2.844 2.844 0 002.79 2.79h19.97c1.53.03 2.76 1.26 2.79 2.79v10.52c.11 1.18-.12 2.37-.64 3.43l-.64.43c-.21.21-.43.43-.64.43-4.08 2.79-11.6 7.31-27.27 7.31-24.69 0-39.73-17.18-39.73-36.29 0-20.4 14.82-37.15 40.8-37.35a36.064 36.064 0 0127.27 10.94c1.08.86 1.08 1.08 1.08 1.08a2.719 2.719 0 003.85.01l.01-.01 6.66-6.87a2.719 2.719 0 00.01-3.85l-.01-.01-1.08-.86c-21.98-20.53-56.07-20.62-78.16-.21a50.53 50.53 0 00-15.24 36.5 49.099 49.099 0 0017.18 38.65 56.978 56.978 0 0036.93 13.31c29.2 0 41.44-12.88 44.02-16.32l.43-.43c.21-.21.21-.43.43-.43 0-.12.09-.21.21-.21h.01V92.44c-.4-1.48-1.71-2.54-3.24-2.58z" fill="#fff"/><path id="Path_2432_1_" d="M658.12 41.98c.48-.83.19-1.88-.64-2.36h-.01l-11.17-7.09a1.25 1.25 0 00-.86-.21c-.62-.03-1.21.31-1.5.86l-9.66 15.24 15.03 6.87 8.81-13.31zm4.73 20.18c1.15.55 2.01 1.56 2.36 2.79.02.16.1.31.21.43l8.59-13.1c.44-.79.26-1.78-.43-2.36l-10.31-6.44a1.25 1.25 0 00-.86-.21c-.62-.03-1.21.31-1.5.86l-8.59 13.09 10.53 4.94zm36.29 7.95l-7.3-4.5a1.25 1.25 0 00-.86-.21c-.62-.03-1.21.31-1.5.86L674.21 89c-.41.79-.24 1.77.43 2.36l7.31 4.72c.25.17.56.25.86.21.62.03 1.21-.31 1.5-.86l15.24-22.76c.61-.73.52-1.81-.21-2.42-.06-.04-.13-.1-.2-.14zm-22.76 52.39c.03-.29.11-.58.21-.86.88-2.69 2.03-5.27 3.43-7.73L657.04 97.8l-6.66-13.31c-.97-1.83-2.47-3.33-4.3-4.3a90.244 90.244 0 00-10.09-5.14l2.36-3.65 14.82 6.44c.21 0 .43.21.64.21.68-.01 1.28-.44 1.5-1.08l6.87-10.31c.4-.89.02-1.94-.86-2.36l-15.46-7.52-13.74-6.23a1.25 1.25 0 00-.86-.21h-.43c-.43.08-.81.31-1.08.64l-15.24 26.63c-.61.64-.69 1.62-.21 2.36l20.4 35.22-7.31 27.92c-.43 1.29-.21 2.36 1.5 2.36h50.68c1.5 0 2.15-.86 1.93-2.15l-5.12-20.82zm-16.75-42.94c-.44.79-.26 1.78.43 2.36l9.23 5.8c.25.17.56.25.86.21.62.03 1.21-.31 1.5-.86l6.66-10.31 9.66-14.6c.41-.79.24-1.77-.43-2.36l-9.02-5.37a1.25 1.25 0 00-.86-.21c-.62-.03-1.21.31-1.5.86L665.42 71.4l-5.79 8.16zm132.7 10.73c-4.3-1.08-19.54-4.94-25.99-6.44l-5.37-1.29c-9.45-2.36-13.96-7.09-13.96-14.17 0-10.52 10.95-14.39 21.26-14.39 14.82 0 22.76 6.01 24.48 16.32.21 1.29.21 3.65 2.36 3.65h11.81c1.34 0 2.46-1.02 2.58-2.36 0 0-.21-1.93-.21-2.58-2.58-19.97-23.19-27.07-40.37-27.07-18.68 0-38.65 8.8-38.65 28.13 0 12.24 7.73 20.4 23.19 24.26 5.37 1.29 9.88 2.36 13.96 3.43h.21c7.31 1.72 13.31 3.22 18.25 4.94 6.11 1.56 10.26 7.24 9.88 13.53 0 6.66-4.51 13.53-16.11 15.68l6.66 5.37c.21.21.21.43.43.64.05.31-.17.6-.48.64a.43.43 0 01-.16 0h-.21l-11.17-5.8h-3.01c-15.68 0-25.99-6.23-28.34-16.53l-16.96-9.02c-.18 1.21-.25 2.43-.21 3.65v1.29c1.29 20.4 17.82 32.42 44.23 32.42 20.4 0 42.09-7.94 42.09-30.28.21-8.34-5.16-19.94-20.19-24.02zm302.55-18.89c0-16.75-7.52-27.27-30.92-27.27h-48.53c-1.3.01-2.35 1.06-2.36 2.36v94.47a2.711 2.711 0 002.62 2.79h9.83a2.844 2.844 0 002.79-2.79v-36.49a2.937 2.937 0 012.86-3.01H1060.95c16.75-.21 18.9 3.65 18.9 18.25v21.26a2.844 2.844 0 002.79 2.79h9.24c2.58 0 2.79-1.72 2.79-3.22v-24.9c0-21.9-15.03-21.04-15.03-21.04 4.72-.23 15.24-4.52 15.24-23.2zm-31.57 16.95h-31.78a2.937 2.937 0 01-3.01-2.86v-25.7a2.937 2.937 0 012.86-3.01H1062.87c10.74 0 18.47 1.72 18.47 14.82.01 9.03-5.57 16.75-18.03 16.75zM1189.58 130h-56.69c-1.53.02-2.78-1.2-2.8-2.73 0-.09 0-.18.01-.28l-.21-24.26c.15-1.39 1.2-2.53 2.58-2.79h40.16c1.06 0 1.93-.85 1.93-1.92V87.07c0-1.06-.85-1.93-1.92-1.93h-39.96a3.214 3.214 0 01-3.01-2.79V61.3a2.937 2.937 0 012.86-3.01h55.33c.92-.23 1.6-.99 1.72-1.93v-9.87c-.04-.97-.76-1.78-1.72-1.93h-69.79c-1.08.05-1.98.86-2.15 1.93v95.34c.01 1.3 1.06 2.35 2.36 2.36h70.65c1.06 0 1.93-.85 1.93-1.92v-9.68c.42-1.5-.22-2.36-1.29-2.58V130zM948.65 44.34c-28.56 0-47.03 19.54-47.03 49.6s18.47 49.6 47.03 49.6c28.56 0 47.03-19.54 47.03-49.6s-18.47-49.6-47.03-49.6zm0 87.82c-27.92 0-30.92-26.84-30.92-38.22s3.01-38.22 30.92-38.22c27.91 0 30.92 26.84 30.92 38.22s-3 38.22-30.92 38.22zm-52.18-88.03h-79.45c-1.06 0-1.93.85-1.93 1.92v9.68c0 1.06.85 1.93 1.92 1.93h28.58a3.019 3.019 0 013.01 2.58v80.74a2.844 2.844 0 002.79 2.79h10.74a2.844 2.844 0 002.79-2.79v-80.1a2.937 2.937 0 012.86-3.01H896.49c1.06 0 1.93-.85 1.93-1.92v-9.68c0-1.11-.84-2.05-1.95-2.14z" fill="#bdbdbd"/><path id="Path_2430" class="st0" d="M476.11 42.71c-8.1 0-14.66 6.57-14.66 14.66s6.57 14.66 14.66 14.66c8.1 0 14.66-6.57 14.66-14.66-.01-8.09-6.57-14.65-14.66-14.66z"/></svg>